# xmcd
#
# Track frame offsets: 
#        150
#        6368
#        32117
#        50851
#        103368
#        108904
#        130178
#        172177
#        179611
#        184692
#        195845
#        214503
#        230393
#        249704
#        251125
#
# Disc length: 4381 seconds
#
# Revision: 0
# Processed by: cddbd v1.5.2PL0 Copyright (c) Steve Scherf et al.
# Submitted via: ExactAudioCopyFreeDBPlugin 1.0
#
DISCID=da111b0f
DTITLE=Frankie goes to Hollywood - Sexmix
DYEAR=1900
DGENRE=Pop
TTITLE0=''All In The Body''
TTITLE1=The Soundtrack From Bernard Rose'sVideo Of Welcome To The Plea
TTITLE1=suredome Single
TTITLE2=Get It On
TTITLE3=Welcome To The Pleasuredome (How To Remake The World)
TTITLE4=''All In The Mind''
TTITLE5=Relax (International)
TTITLE6=The Power Of Love (Extended, Singlette Version)
TTITLE7=''Scrapped''
TTITLE8=Hoiler Than Thou
TTITLE9=''Trapped''
TTITLE10=Hoiler Than Thou
TTITLE11=The Power Of Love (Instrumental, Singlette Version)
TTITLE12=The World Is My Oyster (In It's 7'' Form)
TTITLE13=''Don't Lose What's Left''
TTITLE14=Rage Hard +++x
EXTD=
EXTT0=
EXTT1=
EXTT2=
EXTT3=
EXTT4=
EXTT5=
EXTT6=
EXTT7=
EXTT8=
EXTT9=
EXTT10=
EXTT11=
EXTT12=
EXTT13=
EXTT14=
PLAYORDER=
